<?xml version="1.0" encoding="utf-8"?>
<!-- Generator: Adobe Illustrator 18.0.0, SVG Export Plug-In . SVG Version: 6.00 Build 0)  -->
<!DOCTYPE svg PUBLIC "-//W3C//DTD SVG 1.1//EN" "http://www.w3.org/Graphics/SVG/1.1/DTD/svg11.dtd">
<svg version="1.1" id="Layer_1" xmlns="http://www.w3.org/2000/svg" xmlns:xlink="http://www.w3.org/1999/xlink" x="0px" y="0px"
	 viewBox="0 0 36 36" enable-background="new 0 0 36 36" xml:space="preserve">
<g>
	<circle fill="#DE6C2D" cx="18" cy="18" r="18"/>
	<path fill="#FFFFFF" d="M30.2,18.4v-1.1h2.4c-0.1-2.9-1.1-5.6-2.7-7.9c1.8-2.2,6.3-8.4,5.9-9.2c-0.4-0.6-6.9,3.2-9.6,5.5
		c-2.2-1.5-4.9-2.4-7.8-2.5v2.2h-1.1V3.2C9.7,3.6,3.7,9.7,3.4,17.3h2.1v1.1H3.4c0.3,7.6,6.3,13.7,13.9,14v-2.2h1.1v2.2
		c7.7-0.2,13.9-6.4,14.2-14.1H30.2z"/>
	<path fill-rule="evenodd" clip-rule="evenodd" fill="#384158" d="M16.9,16.7l-5.3-4.2l-1.9,1.9l8.4,9.4C21.9,16.7,28.5,8,33.7,2.2
		C30.6,3.6,21.4,11.8,16.9,16.7z"/>
</g>
</svg>
